# xmcd
#
# Track frame offsets: 
#        150
#        14750
#        29252
#        46053
#        63322
#        80117
#        93179
#        108239
#        124321
#        140992
#        155687
#        171986
#
# Disc length: 2513 seconds
#
# Revision: 2
# Processed by: cddbd v1.5.2PL0 Copyright (c) Steve Scherf et al.
# Submitted via: ExactAudioCopy v1.0b1
#
DISCID=a709cf0c
DTITLE=Nisse Hellberg - Flod av eld
DYEAR=2011
DGENRE=Blues
TTITLE0=Flod av eld
TTITLE1=Ren och rak
TTITLE2=Pil av silver
TTITLE3=Nån måste få jobbet gjort
TTITLE4=Flickan i cement
TTITLE5=Jag ar en skakad man
TTITLE6=Kan inte sätta stopp
TTITLE7=Den andra kinden
TTITLE8=Tabu Cafe
TTITLE9=Min broder Bläck
TTITLE10=Glider nerför vägen med min blues
TTITLE11=99 och bara en kvar
EXTD=YEAR: 2011
EXTT0=
EXTT1=
EXTT2=
EXTT3=
EXTT4=
EXTT5=
EXTT6=
EXTT7=
EXTT8=
EXTT9=
EXTT10=
EXTT11=
PLAYORDER=
